<svg id="Layer_1" data-name="Layer 1" xmlns="http://www.w3.org/2000/svg" viewBox="0 0 102.67 29.66"><defs><style>.cls-1{fill:#0b586d;}</style></defs><g id="Group_2373" data-name="Group 2373"><g id="Artwork_5" data-name="Artwork 5"><g id="Group_2372" data-name="Group 2372"><path id="Path_7339" data-name="Path 7339" class="cls-1" d="M28.47.21a15,15,0,0,0-8.94,5h0L19,5.81l-.25.34-.25.33L18.18,7l-.13.17-.38.64v.08a15.11,15.11,0,0,0-1.23,3l1.4-.25h.21l.3-.09.34-.13.21-.5h0l.22-.47h0L19.37,9V8.94l.21-.38.09-.13.21-.34L20,7.88l.21-.3.21-.3.13-.21.38-.47A13.34,13.34,0,0,1,23,4.7h0a13,13,0,0,1,4.23-2.08,12.65,12.65,0,0,1-4,6.28h0A14.27,14.27,0,0,1,22,9.75h0l-.72.42-.76.38-.13.09-.34.17-.25.12h-.13l-.3.13-.34.13-.3.08H18.6l-.3.09h-.21l-1.74.34H14.49a16.4,16.4,0,0,1,.26,2h1.78l.63-.09h0l1.36-.25h.08L20,12.92l.42-.17h0l.22-.08h0a14.6,14.6,0,0,0,3.68-2.2l.3-.25a14.77,14.77,0,0,0,5-8.9l.08-.6L29.83,0Z"/><path id="Path_7340" data-name="Path 7340" class="cls-1" d="M1.36,29.45a14.77,14.77,0,0,0,4.95-1.7,14.75,14.75,0,0,0,4-3.26h0l.51-.64.25-.33.26-.34.33-.51.13-.17.38-.64v-.08a14.87,14.87,0,0,0,1.23-3L12,19h-.21l-.3.08-.34.13-.21.5h0l-.25.6h0l-.21.42v.09l-.21.38-.09.17-.21.34L9.79,22l-.22.3-.21.3-.13.21-.38.47a13.34,13.34,0,0,1-2.07,1.9h0A12.87,12.87,0,0,1,2.54,27.2a12.8,12.8,0,0,1,4-6.27h0a13.2,13.2,0,0,1,1.23-1h0l.72-.43.72-.42L9.45,19l.34-.17.25-.12h.13l.3-.13.33-.13.3-.08h.09l.3-.09h.21l1.73-.34H15.3a14.62,14.62,0,0,1-.25-2H13.3l-.64.09h0l-1.31.25h-.09l-1.35.42-.43.17h0L9.23,17h0a14.74,14.74,0,0,0-3.68,2.24l-.3.26a14.79,14.79,0,0,0-5,8.9l-.09.59L0,29.66Z"/><path id="Path_7341" data-name="Path 7341" class="cls-1" d="M5.21,10.21h0a14.94,14.94,0,0,0,5.77,3,13.27,13.27,0,0,0-.26-1.4v-.21l-.08-.3L10.51,11A12.73,12.73,0,0,1,6.57,8.73,12.74,12.74,0,0,1,2.46,2.46a12.82,12.82,0,0,1,6.31,4,13,13,0,0,1,1.87,2.84l.08.13.17.34.13.3.12.33v.34l.13.34.08.34v.21a11.12,11.12,0,0,1,.34,1.7v1.78l.56-.09h.08l.68-.09h.68V14a14.05,14.05,0,0,0-.43-2.66v-.09c-.12-.46-.25-.89-.42-1.36l-.17-.42h0l-.08-.25a15.18,15.18,0,0,0-2.46-4,14.94,14.94,0,0,0-8.77-5L0,0,.21,1.31a14.79,14.79,0,0,0,5,8.9"/><path id="Path_7342" data-name="Path 7342" class="cls-1" d="M24.62,19.45h0a14.94,14.94,0,0,0-5.77-3.05,13.27,13.27,0,0,0,.26,1.4V18l.08.3.13.34a12.84,12.84,0,0,1,8,8.55,12.85,12.85,0,0,1-8.18-6.82l-.08-.13-.17-.33-.13-.3-.12-.34v-.34l-.13-.34-.09-.34v-.21a14.2,14.2,0,0,1-.34-1.7V14.58l-.55.08h-.08l-.68.09h-.85v.89a14.05,14.05,0,0,0,.43,2.66v.09a14.14,14.14,0,0,0,.42,1.36l.17.42h0l.08.25a14.9,14.9,0,0,0,11.44,9l1.36.21-.21-1.31a14.79,14.79,0,0,0-5-8.9"/><path id="Path_7343" data-name="Path 7343" class="cls-1" d="M97.08,9.66H95.17v-7h1.91c2.2,0,4,1.31,4,3.51s-1.78,3.52-4,3.52m0-8.6H93.56V11.23h3.52c3.09,0,5.59-2,5.59-5.09s-2.5-5.08-5.59-5.08"/><path id="Path_7344" data-name="Path 7344" class="cls-1" d="M36.44,11.23H38a4.37,4.37,0,0,1,4.36-4.37h.43V5.3h-.43A5.9,5.9,0,0,0,38,7.24V2.63h5.51V1.06H36.44Z"/><path id="Path_7345" data-name="Path 7345" class="cls-1" d="M45.85,1.06H44.28V11.23h6.27V9.66h-4.7Z"/><path id="Path_7346" data-name="Path 7346" class="cls-1" d="M58.51,6.31a3.35,3.35,0,1,1-6.69,0h0V6a3.35,3.35,0,0,1,6.69,0ZM55.17,1.06a5,5,0,0,0-5,5v.3a5,5,0,1,0,10,.14V6a5,5,0,0,0-5-5h0"/><path id="Path_7347" data-name="Path 7347" class="cls-1" d="M68.69,1.06,67.41,4l.85,2,2.16-5Z"/><path id="Path_7348" data-name="Path 7348" class="cls-1" d="M73.05,1.06l-3.48,8L68.26,6l-.84-2-1.28-3H64.41l2.16,5L65.25,9.07l-3.47-8H60l4.41,10.17H66L67.42,8l1.4,3.26h1.56L74.74,1.06Z"/><path id="Path_7349" data-name="Path 7349" class="cls-1" d="M78.47,6.69a5.75,5.75,0,0,0-2.2.43L78,3.18l1.48,3.47ZM77.2,1.06,73.43,9.83l-.25.55-.34.81h1.69l.47-1a4.09,4.09,0,0,1,3.52-1.95h1.65l1.31,3h1.7L78.77,1.06Z"/><path id="Path_7350" data-name="Path 7350" class="cls-1" d="M88.52,6.78H85.89V2.63h2.63a2.1,2.1,0,1,1,.2,4.19h-.2M92.2,4.75A3.64,3.64,0,0,0,88.56,1.1H84.32V11.27h1.57V8.35h2.29L90,11.23H92L91.78,11,89.91,8.09A3.62,3.62,0,0,0,92.2,4.7"/><path id="Path_7351" data-name="Path 7351" class="cls-1" d="M43.73,24.74A11,11,0,0,0,42.67,18l-1.48.68a9.65,9.65,0,0,1,1,5.12H39.58a2.14,2.14,0,0,1-1.83-1l-1.27,1a3.78,3.78,0,0,0,3.1,1.61h4Z"/><path id="Path_7352" data-name="Path 7352" class="cls-1" d="M47.75,18.73s1.4,2.8.38,5.21a5.93,5.93,0,0,1-3.94,3.18l.51,1.52c2.5-.84,4.16-2.2,4.92-4.11A8.49,8.49,0,0,0,49.15,18Z"/><path id="Path_7353" data-name="Path 7353" class="cls-1" d="M53.43,21.78a2,2,0,1,1,2,2h0a2,2,0,0,1-2-2m2-3.64a3.64,3.64,0,0,0-.22,7.24,13.65,13.65,0,0,1-3.6,1.7l.51,1.52c6.87-2.24,7-6,7-6.69v-.17a3.64,3.64,0,0,0-3.64-3.65"/><path id="Path_7354" data-name="Path 7354" class="cls-1" d="M99.45,15.94a.85.85,0,1,0-.89-.81.82.82,0,0,0,.26.57.87.87,0,0,0,.63.24"/><path id="Path_7355" data-name="Path 7355" class="cls-1" d="M99.45,21.27a1.57,1.57,0,1,1,1.13-.44,1.57,1.57,0,0,1-1.13.44m3.18-1.57a3.18,3.18,0,1,0-3.22,3.15,3.22,3.22,0,0,0,1.56-.39,1.9,1.9,0,0,1-1.82,1.44H68.73A3.4,3.4,0,0,0,69.28,22V14.15H67.71V22a1.9,1.9,0,0,1-1.91,1.91H64.4a7.11,7.11,0,0,0-2-6.27l-1.1,1.1a5.57,5.57,0,0,1,1.49,5.16H60.3v1.57H99.41A3.47,3.47,0,0,0,102.58,22v-2.2h0v-.13"/></g></g></g></svg>